<?xml version="1.0" encoding="utf-8"?>
<!-- Generator: Adobe Illustrator 28.3.0, SVG Export Plug-In . SVG Version: 6.00 Build 0)  -->
<svg version="1.1" xmlns="http://www.w3.org/2000/svg" xmlns:xlink="http://www.w3.org/1999/xlink" x="0px" y="0px"
	 viewBox="0 0 800 800" style="enable-background:new 0 0 800 800;" xml:space="preserve">
<style type="text/css">
	.st0{fill-rule:evenodd;clip-rule:evenodd;fill:#262322;}
	.st1{fill-rule:evenodd;clip-rule:evenodd;fill:#3FAE6F;stroke:#FFFFFF;stroke-width:25;stroke-miterlimit:10;}
</style>
<g id="Layer_2">
	<ellipse class="st0" cx="400" cy="395.8" rx="220.2" ry="225.8"/>
</g>
<g id="Layer_1">
	<path class="st1" d="M733.3,400c0,184.1-149.2,333.3-333.3,333.3C215.9,733.3,66.7,584.1,66.7,400C66.7,215.9,215.9,66.7,400,66.7
		C584.1,66.7,733.3,215.9,733.3,400z M470.3,280.6l49.4,49.5c33.5,33.6,50.3,50.3,46.4,68.4c-3.9,18.1-26.1,26.4-70.5,43.1
		l-30.7,11.5c-11.9,4.5-17.8,6.7-22.4,10.7c-2,1.7-3.8,3.7-5.4,5.9c-3.5,4.9-5.2,11.1-8.6,23.3c-7.7,27.9-11.5,41.8-20.6,47
		c-3.8,2.2-8.2,3.3-12.6,3.3c-10.5,0-20.7-10.2-41.1-30.7L338.3,497l-54,54c-9.8,9.8-25.6,9.8-35.4,0c-9.8-9.8-9.8-25.6,0-35.4
		l54-54.1c0,0,0,0,0,0l-14.9-14.9c-20.3-20.3-30.4-30.5-30.5-40.9c0-4.5,1.1-9,3.4-12.9c5.2-9.1,19.1-12.9,46.7-20.5
		c12.3-3.4,18.4-5.1,23.4-8.6c2.2-1.6,4.2-3.5,6-5.5c3.9-4.6,6.1-10.6,10.5-22.6l11.1-30.4c16.4-44.9,24.7-67.3,42.8-71.3
		C419.7,229.9,436.5,246.8,470.3,280.6z"/>
</g>
</svg>
