<?xml version="1.0" encoding="UTF-8"?>
<svg id="Layer_1" data-name="Layer 1" xmlns="http://www.w3.org/2000/svg" viewBox="0 0 437.17 49.44">
  <defs>
    <style>
      .cls-1 {
        fill: #FFFFFF;
        stroke-width: 0px;
        filter: drop-shadow(0px 3px 2px rgb(0 0 0 / 0.4));
        filterUnits="userSpaceOnUse";
      }
    </style>
  </defs>
  <path class="cls-1" d="M0,36.94V.69h7.84l15.29,23.08V.69h7.84v36.26h-7.84L7.84,13.91v23.03H0Z"/>
  <path class="cls-1" d="M36.26,24.65c0-7.64,5.14-12.98,12.54-12.98s12.49,5.05,12.49,13.03v1.91l-17.79.1c.44,3.23,2.25,4.75,5.59,4.75,2.84,0,4.85-1.03,5.39-2.79h6.91c-.88,5.44-5.73,8.92-12.44,8.92-7.4,0-12.69-5.39-12.69-12.93ZM43.61,22.05h10.19c0-2.6-1.91-4.26-4.95-4.26s-4.65,1.32-5.24,4.26Z"/>
  <path class="cls-1" d="M65.17,4.31c0-2.4,1.91-4.26,4.31-4.26s4.26,1.86,4.26,4.26-1.91,4.31-4.26,4.31-4.31-1.91-4.31-4.31ZM65.76,12.44h7.55v24.5h-7.55V12.44Z"/>
  <path class="cls-1" d="M89.52,11.61c3.33,0,5.98,1.27,7.3,3.28l.39-2.45h7.1v22.93c0,8.77-5.05,14.06-13.43,14.06-7.5,0-12.54-4.26-13.23-11.22h7.64c.15,2.74,2.21,4.36,5.54,4.36,3.63,0,5.93-2.16,5.93-5.63v-3.18c-1.47,1.76-4.21,2.89-7.4,2.89-6.86,0-11.61-5.05-11.61-12.4s4.85-12.64,11.76-12.64ZM91.04,30.08c3.43,0,5.73-2.4,5.73-6.03s-2.3-5.88-5.78-5.88-5.63,2.4-5.63,5.88,2.35,6.03,5.68,6.03Z"/>
  <path class="cls-1" d="M110,36.94V0h7.59v14.99c1.52-2.11,4.31-3.33,7.5-3.33,5.83,0,9.21,3.72,9.21,10.14v15.14h-7.55v-13.33c0-3.09-1.71-5.1-4.31-5.1-2.99,0-4.9,1.96-4.9,5v13.42h-7.55Z"/>
  <path class="cls-1" d="M139.7,36.94V0h7.55v15.29c1.47-2.2,4.7-3.67,8.23-3.67,6.86,0,11.22,5.34,11.22,13.33s-4.85,12.64-11.81,12.64c-3.43,0-6.37-1.52-7.69-3.77l-.39,3.14h-7.1ZM153.27,30.67c3.58,0,5.83-2.5,5.83-6.12s-2.25-6.12-5.83-6.12-5.98,2.45-5.98,6.12,2.45,6.12,5.98,6.12Z"/>
  <path class="cls-1" d="M183.26,11.71c7.79,0,13.47,5.19,13.47,12.94s-5.68,12.89-13.47,12.89-13.52-5.14-13.52-12.89,5.68-12.94,13.52-12.94ZM183.26,30.77c3.48,0,5.88-2.45,5.88-6.17s-2.4-6.12-5.88-6.12-5.93,2.45-5.93,6.12,2.4,6.17,5.93,6.17Z"/>
  <path class="cls-1" d="M217.95,19.55h-2.4c-4.31,0-6.91,1.91-6.91,6.76v10.63h-7.54V12.49h7.1l.39,3.63c1.03-2.4,3.18-4.02,6.47-4.02.88,0,1.86.1,2.89.34v7.1Z"/>
  <path class="cls-1" d="M221.77,36.94V0h7.59v14.99c1.52-2.11,4.31-3.33,7.5-3.33,5.83,0,9.21,3.72,9.21,10.14v15.14h-7.55v-13.33c0-3.09-1.71-5.1-4.31-5.1-2.99,0-4.9,1.96-4.9,5v13.42h-7.54Z"/>
  <path class="cls-1" d="M263.67,11.71c7.79,0,13.47,5.19,13.47,12.94s-5.68,12.89-13.47,12.89-13.52-5.14-13.52-12.89,5.68-12.94,13.52-12.94ZM263.67,30.77c3.48,0,5.88-2.45,5.88-6.17s-2.4-6.12-5.88-6.12-5.93,2.45-5.93,6.12,2.4,6.17,5.93,6.17Z"/>
  <path class="cls-1" d="M293.7,11.71c7.79,0,13.47,5.19,13.47,12.94s-5.68,12.89-13.47,12.89-13.52-5.14-13.52-12.89,5.68-12.94,13.52-12.94ZM293.7,30.77c3.48,0,5.88-2.45,5.88-6.17s-2.4-6.12-5.88-6.12-5.93,2.45-5.93,6.12,2.4,6.17,5.93,6.17Z"/>
  <path class="cls-1" d="M310.21,24.84c0-7.79,4.66-13.18,12.1-13.18,3.04,0,5.93,1.22,7.35,3.04V0h7.54v36.94h-7.1l-.39-3.14c-1.32,2.25-4.36,3.77-7.89,3.77-7.06,0-11.61-5-11.61-12.74ZM329.62,24.55c0-3.67-2.45-6.12-5.98-6.12s-5.83,2.5-5.83,6.12,2.25,6.12,5.83,6.12,5.98-2.45,5.98-6.12Z"/>
  <path class="cls-1" d="M351.77,24.89v12.05h-7.94V.69h14.7c7.4,0,12.35,4.85,12.35,12.1s-4.95,12.1-12.35,12.1h-6.76ZM351.77,7.74v10.09h5c3.82,0,5.73-1.67,5.73-5.05s-1.91-5.05-5.73-5.05h-5Z"/>
  <path class="cls-1" d="M374.36,4.31c0-2.4,1.91-4.26,4.31-4.26s4.26,1.86,4.26,4.26-1.91,4.31-4.26,4.31-4.31-1.91-4.31-4.31ZM374.94,12.44h7.54v24.5h-7.54V12.44Z"/>
  <path class="cls-1" d="M388.17,36.94V12.44h7.1l.49,2.55c1.52-2.11,4.31-3.33,7.5-3.33,5.83,0,9.21,3.72,9.21,10.14v15.14h-7.54v-13.33c0-3.09-1.71-5.1-4.31-5.1-2.99,0-4.9,1.96-4.9,5v13.42h-7.54Z"/>
  <path class="cls-1" d="M422.96,29.2c.1,1.71,1.37,2.74,3.67,2.74s3.43-.83,3.43-2.11c0-.74-.39-1.52-2.21-1.91l-4.51-.98c-4.51-.98-6.71-2.94-6.71-7.25,0-5.1,4.36-8.04,10.24-8.04s9.65,3.33,9.65,8.28h-7.15c0-1.67-1.03-2.79-2.84-2.79-1.71,0-2.79.88-2.79,2.21,0,1.13.93,1.76,2.65,2.16l4.56.98c4.02.88,6.22,2.74,6.22,6.66,0,5.24-4.46,8.43-10.83,8.43s-10.53-3.43-10.53-8.38h7.15Z"/>
</svg>